<svg xmlns="http://www.w3.org/2000/svg" width="9" height="11" viewBox="0 0 9 11"><defs><style>.cls-1 { fill: #8bdd0b; fill-rule: evenodd; }</style></defs><path id="Shape_1855_copy" class="cls-1" d="M1169.36 1223a.9.9 0 0 1-.76-.44l-2.43-3.71a1.223 1.223 0 0 1-.16-.82 1.123 1.123 0 0 1 .35-.72.781.781 0 0 1 .69-.22.9.9 0 0 1 .63.44l1.59 2.42 4-7.45a.946.946 0 0 1 .58-.47.93.93 0 0 1 .72.12 1.107 1.107 0 0 1 .4.68 1.329 1.329 0 0 1-.1.83l-4.73 8.81a.836.836 0 0 1-.76.5z" transform="translate(-1166 -1212)"/></svg>