<svg xmlns="http://www.w3.org/2000/svg" width="18.031" height="23.031" viewBox="0 0 18.031 23.031"><defs><style>.cls-1 { fill: #777; fill-rule: evenodd; }</style></defs><path id="order-tickets-icon" class="cls-1" d="M124.907 102.832l2.324 2.372 5.832-5.917-2.323-2.372zm10.48-7.114a.875.875 0 0 1-1.162 0 .9.9 0 0 1 0-1.174l-1.755-1.8a1.418 1.418 0 0 0-2.323 0l-9.317 9.486a1.475 1.475 0 0 0 0 2.371l1.754 1.8a.849.849 0 0 1 1.162 0 .9.9 0 0 1 0 1.174l1.754 1.773a1.366 1.366 0 0 0 2.324 0l9.317-9.486a1.52 1.52 0 0 0 0-2.372zm-8.156 11.857l-4.647-4.743 8.156-8.288 4.647 4.743zm-5.548-11.765a.944.944 0 0 1-.616 1.036l.569 2.372.071.253 8.25-8.611a1.644 1.644 0 0 1 2.727 0l2.039 2.14 1.375 1.427 1.541 1.612a1.593 1.593 0 0 0 .284-1.5l-.592-2.372a.864.864 0 0 1-1.02-.576.889.889 0 0 1 .617-1.013l-.569-2.395a1.386 1.386 0 0 0-2.016-1.105l-13.016 3.753a1.518 1.518 0 0 0-1.256 2.049l.593 2.371a.866.866 0 0 1 1.019.559z" transform="translate(-119.969 -86.969)"/></svg>