<svg xmlns="http://www.w3.org/2000/svg" width="73.688" height="47.469" viewBox="0 0 73.688 47.469"><defs><style>.cls-1 { fill: #d4dadf; fill-rule: evenodd; }</style></defs><path id="cbs-news" class="cls-1" d="M560.813 875.861a11.044 11.044 0 1 0 11.047 11.045 11.046 11.046 0 0 0-11.047-11.045zm0 17.532c-4.537-.019-8.226-3-10.179-6.567a11.921 11.921 0 0 1 10.179-6.429 11.737 11.737 0 0 1 10.179 6.429c-1.934 3.57-5.563 6.586-10.179 6.567zm0-.882a5.606 5.606 0 1 0-5.607-5.605 5.607 5.607 0 0 0 5.607 5.605zm16.96-5.649c0-8.008 2.322-10.868 5.056-10.868 3.869 0 5.985 5.772 6.655 8.008v-7.748a2.448 2.448 0 0 1-1.7.78 5.515 5.515 0 0 1-2.322-.676 5.581 5.581 0 0 0-2.579-.573c-3.4 0-9.338 4.525-9.338 11.077 0 7.749 5.262 11.077 9.338 11.077a5.91 5.91 0 0 0 2.682-.728 5.1 5.1 0 0 1 2.219-.728 2.448 2.448 0 0 1 1.7.78v-7.8c-.567 3.015-2.786 8.268-6.655 8.268a5.245 5.245 0 0 1-3.328-1.248c-.214-.224-1.728-1.3-1.728-9.621zm24.691-.824c4.265-.9 5.029-2.75 5.029-4.708 0-2.618-3.007-5.183-7.326-5.183h-10.167v.212h3.39v21.1h-3.39v.212h10.663c3.226 0 7.929-2.01 7.929-6.136s-4.492-5.285-6.128-5.497zm1.367-4.76c0 4.443-1.5 4.654-2.926 4.654h-3.164v-9.573h2.371c1.914 0 3.719.476 3.719 4.919zm-3.282 16.184h-3.115v-.05h.307v-11.269h2.972c2.188.054 3.938 1.111 3.938 5.713s-1.586 5.606-4.102 5.606zm20.826-13.5h.281l-.036-8.062h-.245a2.529 2.529 0 0 1-1.681.765c-.981 0-2.488-.938-4.1-.938a6.424 6.424 0 0 0-5.851 6.53c0 4.827 3.258 5.661 4.8 6.286s6.376 1.632 6.376 4.828a3.991 3.991 0 0 1-4.2 4.307c-1.927 0-4.274-1.389-5.57-4.272a12.81 12.81 0 0 1-1.332-4.238h-.317v8.232h.245a1.934 1.934 0 0 1 1.366-.764c.806 0 3.539 1.424 5.711 1.424a7.187 7.187 0 0 0 6.622-7.085c0-4.863-3.715-5.419-5.011-5.87s-6.411-1.32-6.411-4.933a3.82 3.82 0 0 1 5.956-3.334c2.206 1.562 3.322 5.943 3.397 7.123zm-2.943 25.916c-1.3-.451-6.411-1.319-6.411-4.931a3.82 3.82 0 0 1 5.956-3.335c2.207 1.563 3.328 5.94 3.4 7.121h.281l-.036-8.059h-.245a2.529 2.529 0 0 1-1.681.765c-.981 0-2.488-.938-4.1-.938a6.424 6.424 0 0 0-5.851 6.529c0 4.828 3.258 5.662 4.8 6.287s6.376 1.632 6.376 4.828a3.991 3.991 0 0 1-4.2 4.307c-1.927 0-4.274-1.39-5.57-4.272a12.81 12.81 0 0 1-1.332-4.238h-.319v8.232h.245a1.934 1.934 0 0 1 1.366-.764c.806 0 3.539 1.424 5.711 1.424a7.187 7.187 0 0 0 6.622-7.085c-.001-4.864-3.716-5.421-5.012-5.872zm-7.415-9.117h-4.948v.624h2.2l-4.806 15.491-4.637-15.491h2.389v-.625h-7.948v.624h1.394l2.055 6.541-2.759 9.009-4.561-15.55h1.832v-.624h-28.572v.624h2.444v13.632l-8.757-14.256h-6.388v.624h2.43v20.456h-2.43v.535h5.4v-.535h-2.309v-18.457l11.576 18.963h.9v-20.962h4.348v20.456h-2.429v.535h16.885v-6.775h-.421s-.809 3.806-2.519 5.025a8.605 8.605 0 0 1-2.476 1.219h-5.14v-10.7h1.619a3.155 3.155 0 0 1 2.4.952c.749.743 1.379 3.419 1.379 3.419h.48v-9.336h-.48s-.33 1.219-.779 2.557a3.332 3.332 0 0 1-2.969 1.873c-.579 0-1.288.015-1.65.024v-9.241h4.679a6.128 6.128 0 0 1 2.938 1.606 7.568 7.568 0 0 1 1.44 3.092h.48v-4.7h1.859l6.6 21.794h.809l4.439-14.212 4.288 14.212h.84l6.858-21.8h2.015v-.624z" transform="translate(-549.75 -875.719)"/></svg>