<svg xmlns="http://www.w3.org/2000/svg" width="45.906" height="46.062" viewBox="0 0 45.906 46.062"><defs><style>.cls-1 { fill: #d4dadf; fill-rule: evenodd; }</style></defs><path id="abc" class="cls-1" d="M717.355 890.769a3.446 3.446 0 0 0-3.571 3.408 3.537 3.537 0 0 0 3.571 3.583 3.28 3.28 0 0 0 3.309-3.408 3.328 3.328 0 0 0-3.309-3.583zm-14.545-.349a3.465 3.465 0 0 0-3.483 3.58 3.484 3.484 0 0 0 6.967-.088 3.392 3.392 0 0 0-3.484-3.492zm13.935-19.311a23.025 23.025 0 1 0 22.992 23.068 22.99 22.99 0 0 0-22.992-23.068zm-7.838 28.835h-2.526v-1.31a5.125 5.125 0 0 1-3.483 1.31 5.933 5.933 0 0 1-4.878-1.922 6.475 6.475 0 0 1-1.48-3.845 6.108 6.108 0 0 1 6.445-6.291 5.848 5.848 0 0 1 5.922 6.2v5.855zm12.889-1.573a6.013 6.013 0 0 1-4.354 2.01 6.9 6.9 0 0 1-4.79-1.835 6.262 6.262 0 0 1-1.742-4.631v-9.615h2.79v5.243l.087-.087a4.894 4.894 0 0 1 3.309-1.4 6.125 6.125 0 0 1 6.184 6.028 7.7 7.7 0 0 1-1.48 4.287zm9.231 2.01a6.144 6.144 0 0 1-4.267-1.835 6.022 6.022 0 0 1-1.915-4.546 6.217 6.217 0 0 1 6.182-6.205 6.093 6.093 0 0 1 5.836 4.282h-3.135a2.971 2.971 0 0 0-2.787-1.485 3.23 3.23 0 0 0-3.31 3.408 3.415 3.415 0 0 0 3.484 3.582 3.274 3.274 0 0 0 2.613-1.485h3.135a6.173 6.173 0 0 1-5.836 4.284z" transform="translate(-693.844 -871.094)"/></svg>