<svg xmlns="http://www.w3.org/2000/svg" width="34" height="34" viewBox="0 0 34 34"><defs><style>.cls-1 { filter: url(#filter); } .cls-2 { fill: #060000; fill-rule: evenodd; }</style><filter id="filter" filterUnits="userSpaceOnUse"><feFlood result="flood" flood-color="#060000"/><feComposite result="composite" operator="in" in2="SourceGraphic"/><feBlend result="blend" in2="SourceGraphic"/></filter></defs><g id="lightbulb" class="cls-1"><path class="cls-2" d="M1203.5 1417.82a7.605 7.605 0 0 0-7.6 7.61c0 4.32 3.71 6.83 3.71 9.04v.54a.98.98 0 0 0 .97.98h5.84a.98.98 0 0 0 .97-.98v-.53c0-2.22 3.71-4.66 3.71-9.05a7.605 7.605 0 0 0-7.6-7.61zm-4.1 10.3a4.872 4.872 0 0 1-.91-2.83 5 5 0 0 1 7.62-4.2l-.28-.01a6.432 6.432 0 0 0-6.47 6.39c0 .22.02.44.04.65z" transform="translate(-1186.5 -1408.5)"/><path id="Shape_1470_copy_2" class="cls-2" d="M1201.01 1440.01a2.49 2.49 0 1 0 4.98 0c0-1.38-4.98-1.38-4.98 0zm6.41.24a.982.982 0 0 1-.98.98h-5.88a.982.982 0 0 1-.98-.98v-1.96a.984.984 0 0 1 .98-.99h5.88a.984.984 0 0 1 .98.99v1.96z" transform="translate(-1186.5 -1408.5)"/><path id="Shape_1470_copy" class="cls-2" d="M1203.5 1415.05a1.314 1.314 0 0 1-1.31-1.31v-3.93a1.31 1.31 0 0 1 2.62 0v3.93a1.314 1.314 0 0 1-1.31 1.31zm15.69 11.78h-3.92a1.31 1.31 0 0 1 0-2.62h3.92a1.31 1.31 0 0 1 0 2.62zm-27.46 0h-3.92a1.31 1.31 0 0 1 0-2.62h3.92a1.31 1.31 0 0 1 0 2.62zm22.87 11.11a1.334 1.334 0 0 1-.93-.38l-2.77-2.78a1.308 1.308 0 0 1 1.85-1.85l2.77 2.78a1.305 1.305 0 0 1-.92 2.23zm-19.42-19.44a1.3 1.3 0 0 1-.93-.39l-2.77-2.77a1.31 1.31 0 0 1 0-1.85 1.292 1.292 0 0 1 1.85 0l2.77 2.77a1.31 1.31 0 0 1 0 1.85 1.28 1.28 0 0 1-.92.39zm-2.78 19.44a1.31 1.31 0 0 1-.92-2.24l2.77-2.77a1.308 1.308 0 0 1 1.85 1.85l-2.77 2.78a1.334 1.334 0 0 1-.93.38zm19.42-19.44a1.28 1.28 0 0 1-.92-.39 1.31 1.31 0 0 1 0-1.85l2.77-2.78a1.312 1.312 0 1 1 1.85 1.86l-2.77 2.77a1.3 1.3 0 0 1-.93.39z" transform="translate(-1186.5 -1408.5)"/></g></svg>