<svg xmlns="http://www.w3.org/2000/svg" width="59.812" height="56.281" viewBox="0 0 59.812 56.281"><defs><style>.cls-1 { fill: #d4dadf; fill-rule: evenodd; }</style></defs><path id="fox-news" class="cls-1" d="M807.58 924.268v-7.56h59.828v7.56h-59.828zm4.515-3.92c.282 0 .564 0 .564.279h1.976c-.282-.839-1.129-1.4-2.54-1.4-1.693 0-2.822.841-2.822 1.961 0 1.4 1.129 1.96 2.54 1.96 1.693 0 2.54-.56 2.822-1.4h-1.693a1.5 1.5 0 0 1-.847.56.93.93 0 0 1-1.129-1.119c0-.562.282-.841 1.134-.841zm11.571.279c0-.839-.565-1.119-1.693-1.119-.847 0-1.412 0-1.694.56v-1.961h-1.693v5.041h1.693v-1.96a.745.745 0 0 1 .847-.84c.847 0 .847.279.847.84v1.96h1.693v-2.521zm9.03 2.241a.976.976 0 0 1-.282-.561v-1.4a1.672 1.672 0 0 0-.282-1.119 3.654 3.654 0 0 0-1.976-.28c-1.41 0-2.257.28-2.539 1.119h1.693a.708.708 0 0 1 .846-.559c.565 0 .565.28.565.559s-.565.28-1.693.28c-1.129.281-1.694.561-1.694 1.12 0 .841.847 1.121 1.694 1.121a2.393 2.393 0 0 0 1.975-.56v.56h1.697v-.28zm9.313-2.241c0-.839-.564-1.119-1.693-1.119-.847 0-1.411 0-1.693.56v-.56h-1.694v3.64h1.694v-1.96a.745.745 0 0 1 .846-.84c.847 0 .847.279.847.84v1.96h1.693v-2.521zm9.313 0c0-.839-.564-1.119-1.975-1.119a2.085 2.085 0 0 0-1.694.56v-.56h-1.693v3.64h1.976v-1.96a.745.745 0 0 1 .846-.84c.565 0 .565.279.565.84v1.96h1.975v-2.521zm9.313.841c0-1.4-1.129-2.241-2.822-2.241s-2.822.841-2.822 1.961c0 1.4 1.129 1.96 2.822 1.96 1.411 0 2.54-.28 2.822-1.121h-1.693a1.37 1.37 0 0 1-1.129.28.745.745 0 0 1-.846-.839h3.668zm5.365-3.361h-1.975v5.041h1.975v-5.041zm-8.184 1.961c.847 0 1.129.28 1.129.839h-1.975a.745.745 0 0 1 .843-.839zm-27.939 2.239c-.564 0-.846 0-.846-.28s.282-.28.846-.559h.847v.279c-.003.56-.285.56-.85.56zm31.608-17.92a7.259 7.259 0 0 1 3.386 1.4 4.255 4.255 0 0 1 1.129 2.8 5.838 5.838 0 0 1-1.129 3.08 5.766 5.766 0 0 1-4.233 1.68c-3.105 0-5.08-1.4-5.644-4.2l3.386-.841a2.246 2.246 0 0 0 2.54 1.961 1.029 1.029 0 0 0 1.129-1.12c0-1.121-.846-.841-2.258-1.4-2.821-.84-4.233-1.959-4.233-4.2 0-2.8 1.975-4.76 5.362-4.76a5.075 5.075 0 0 1 4.8 3.641l-3.1.839a2.451 2.451 0 0 0-1.976-1.4 1.288 1.288 0 0 0-1.411 1.12c-.009.84.838.84 2.249 1.4zm-.847-7.561l-2.258-3.92-2.257 3.92h-4.8l4.516-7.84-4.516-7.561h5.08l1.975 3.36 1.694-3.36h5.079l-4.515 7.281 4.8 8.12h-4.8zm-16.086 10.641l1.693-8.121h3.105l1.693 8.121 1.693-8.121h3.105l-3.387 14h-3.1l-1.694-8.121-1.693 8.121h-3.386l-3.1-14h3.387zm1.129-10.641a7.627 7.627 0 0 1-7.9-7.56 7.857 7.857 0 0 1 7.9-7.841 8.045 8.045 0 0 1 7.9 7.841 7.8 7.8 0 0 1-7.903 7.56zm0-12.321a1.328 1.328 0 0 0-1.411 1.4v6.44a1.328 1.328 0 0 0 1.411 1.4 1.284 1.284 0 0 0 1.129-1.4l.282-6.44a1.508 1.508 0 0 0-1.414-1.4zm-7.055 25.482v3.36h-9.031v-14h9.031v3.36h-5.644v1.96h4.8v3.08h-4.8v2.241h5.644zm-1.129-28.562l.282 4.2h-5.362v1.961h4.515v4.2h-4.515v5.04h-4.517v-12.533l-9.638 15.053h2.583l4.233 7v-7h3.669v14h-3.387l-5.08-8.121v8.121h-3.386v-11.863l-9.031 14.1 22.859-47.6h7.619l-8.605 13.441h7.759zm-29.917 33.322l9.877-46.763h6.773l-16.65 47.6v-.84z" transform="translate(-807.594 -868)"/></svg>