<svg xmlns="http://www.w3.org/2000/svg" width="72.969" height="72.97" viewBox="0 0 72.969 72.97"><defs><style>.cls-1 { fill: #269eff; } .cls-1, .cls-3, .cls-4, .cls-5 { fill-rule: evenodd; } .cls-2 { fill: #e5e9ec; } .cls-3 { fill: #060000; } .cls-4 { fill: #fece22; } .cls-5 { fill: #ffcb16; }</style></defs><path class="cls-1" d="M503.6 1560.88l-4.295-6.79 2.548-7.67a2.329 2.329 0 0 0-1.019-2.77l-6.99-4.02-1.238-8.03a2.262 2.262 0 0 0-2.184-1.9l-8.009-.36-4.879-6.43a2.3 2.3 0 0 0-2.766-.73l-7.281 3.51-7.281-3.51a2.3 2.3 0 0 0-2.767.73l-4.878 6.43-8.01.36a2.263 2.263 0 0 0-2.184 1.9l-1.238 8.03-6.989 4.02a2.329 2.329 0 0 0-1.02 2.77l2.549 7.67-4.3 6.79a2.323 2.323 0 0 0 .364 2.92l5.752 5.62-.655 8.03a2.367 2.367 0 0 0 1.674 2.41l7.718 2.26 3.131 7.45a2.355 2.355 0 0 0 2.621 1.39l7.863-1.61 6.189 5.11a2.335 2.335 0 0 0 2.913 0l6.189-5.11 7.863 1.61a2.355 2.355 0 0 0 2.621-1.39l3.131-7.45 7.718-2.26a2.369 2.369 0 0 0 1.675-2.41l-.656-8.03 5.752-5.62a2.323 2.323 0 0 0 .368-2.92z" transform="translate(-431 -1522)"/><circle class="cls-2" cx="36.5" cy="35.5" r="29.5"/><path id="Money_Back" class="cls-3" d="M447.962 1557.79l.374-1.6-4.783-1.13 5.07-.09.337-1.44-4.5-2.36 4.783 1.13.373-1.6-6.271-1.48-.6 2.56 3.586 1.88-4.047.09-.6 2.56zm.984-8.52a2.708 2.708 0 0 0 1.555-.36 4.116 4.116 0 0 0 1.286-1.32 3.646 3.646 0 0 0 .654-1.72 2.751 2.751 0 0 0-.331-1.55 3.883 3.883 0 0 0-1.334-1.34 3.256 3.256 0 0 0-2.5-.62 3.385 3.385 0 0 0-2.089 1.6 3.063 3.063 0 0 0 .943 4.63 3.63 3.63 0 0 0 1.816.68zm-1.681-3.43a1.208 1.208 0 0 1 .179-1.04 1.259 1.259 0 0 1 .9-.6 1.964 1.964 0 0 1 1.311.43 2.394 2.394 0 0 1 1.055 1.12 1.382 1.382 0 0 1-1.1 1.66 2.2 2.2 0 0 1-1.369-.48 2.132 2.132 0 0 1-.976-1.09zm6.555-1.34l1.491-1.13-2.138-2.83 4.06 1.36 1.494-1.14-3.894-5.15-1.5 1.14 2.155 2.85-4.087-1.38-1.481 1.13zm5.509-3.97l5.145-1.76-.468-1.38-3.255 1.1-.407-1.2 2.934-1-.422-1.25-2.934 1-.328-.98 3.163-1.07-.441-1.31-5.053 1.72zm7.349-4.55l.045 2.71 1.994-.03-.045-2.71 2.442-3.8-2.2.03-1.264 2.21-1.334-2.16-2.211.03zm6.762 3.28l3.118 1.45q.2.09.846.3a2.058 2.058 0 0 0 .775.12 1.7 1.7 0 0 0 .844-.3 1.77 1.77 0 0 0 .59-.73 1.592 1.592 0 0 0 .132-1.07 1.85 1.85 0 0 0-.686-.95 1.592 1.592 0 0 0 .811-.1 1.435 1.435 0 0 0 .735-.74 1.5 1.5 0 0 0 .028-1.25 2.042 2.042 0 0 0-1.1-1.03l-3.381-1.57zm3.981-3.83l.8.37a.935.935 0 0 1 .509.41.56.56 0 0 1-.019.48.571.571 0 0 1-.36.34.923.923 0 0 1-.656-.13l-.785-.36zm-1.029 2.23l.917.42a1.2 1.2 0 0 1 .591.47.578.578 0 0 1 0 .51.621.621 0 0 1-.4.35 1.032 1.032 0 0 1-.734-.14l-.921-.42zm5.748 7.19l1.532 1.42 2.589-6.41-1.6-1.47-6.147 3.1 1.494 1.39.952-.57 1.661 1.54zm.085-3.28l2.087-1.23-1.047 2.2zm4.647 7.11a1.109 1.109 0 0 1-.71-.59 1.13 1.13 0 0 1-.114-1 2.429 2.429 0 0 1 1.108-1.02 2.322 2.322 0 0 1 1.234-.4 1.183 1.183 0 0 1 .991.63 1.17 1.17 0 0 1 .164.53 1.139 1.139 0 0 1-.1.53 1.4 1.4 0 0 1-.276.39l1.219 1.33a2.91 2.91 0 0 0 .79-1.66 3.274 3.274 0 0 0-.532-1.91 3.226 3.226 0 0 0-1.948-1.66 3.329 3.329 0 0 0-2.552.49 3.751 3.751 0 0 0-1.461 1.41 2.765 2.765 0 0 0-.354 1.54 4.177 4.177 0 0 0 .595 1.65 3.508 3.508 0 0 0 .931 1.11 2.478 2.478 0 0 0 1.112.45 3.356 3.356 0 0 0 1.339-.14l-.417-1.78a1.979 1.979 0 0 1-1.019.1zm-.3 3.04l.408 1.96 1.539-.32 1.265.79-2.314 1.88.5 2.41 3.421-3.24 2.862 1.81-.543-2.61-2.81-1.54 2.382-.51-.408-1.95z" transform="translate(-431 -1522)"/><path id="star_middle_copy" class="cls-4" d="M13.814 38.51l-.555 1.06-1.312.24.835.88-.067 1.31 1.127-.49 1.131.47-.15-1.24.891-.92-1.253-.26z"/><path id="star_middle_copy_2" class="cls-4" d="M58.814 39.51l-.555 1.06-1.312.24.835.88-.067 1.31 1.127-.49 1.131.47-.15-1.24.891-.92-1.253-.26z"/><path class="cls-1" d="M36.886 26c-3.36 2.56-5.579 2.94-9.1 2.94v9.99c0 4.09 3.328 5.15 9.1 8.41 5.77-3.26 9.066-4.32 9.066-8.41v-9.99c-3.518 0-5.737-.38-9.066-2.94z"/><path id="Shape_1845_copy" class="cls-5" d="M35.682 40.18l-3.582-3.24 1.521-1.37 2.061 1.85 4.786-4.25 1.522 1.37z"/><path id="Guarantee" class="cls-3" d="M448 1571.83l-.454.27a2.866 2.866 0 0 1-.561-.37 1.9 1.9 0 0 1-.361-.43 1.225 1.225 0 0 1-.161-1.03 1.97 1.97 0 0 1 .94-.98 1.88 1.88 0 0 1 1.254-.36 1.148 1.148 0 0 1 .813.58 1.109 1.109 0 0 1 .183.63.955.955 0 0 1-.236.56l1.126 1.28a2.263 2.263 0 0 0 .534-.86 1.828 1.828 0 0 0 .051-.93 4.271 4.271 0 0 0-.579-1.29 3.679 3.679 0 0 0-1.032-1.19 2.579 2.579 0 0 0-1.463-.42 3.251 3.251 0 0 0-1.571.51 3.366 3.366 0 0 0-1.149 1.11 2.347 2.347 0 0 0-.364 1.37 3.425 3.425 0 0 0 .554 1.58 4.771 4.771 0 0 0 .892 1.12 5.661 5.661 0 0 0 1.321.8l2.056-1.25-1.393-2.31-1 .61zm4.221 4.52a.993.993 0 0 1-.683.36 1.008 1.008 0 0 1-.688-.3.9.9 0 0 1-.028-1.38l2.362-2.51-1.263-1.2-2.307 2.45a3.441 3.441 0 0 0-.538.8 1.85 1.85 0 0 0-.176.73 2.053 2.053 0 0 0 .1.77 2.283 2.283 0 0 0 .434.73 8.064 8.064 0 0 0 .613.66 3.661 3.661 0 0 0 1.015.71 2.134 2.134 0 0 0 .828.14 2.113 2.113 0 0 0 .888-.23 3.014 3.014 0 0 0 .761-.58l2.307-2.46-1.262-1.2zm4.2 5.43l1.6.88.847-5.99-1.667-.91-4.564 3.94 1.56.86.688-.69 1.735.96zm-.619-2.8l1.512-1.49-.426 2.09zm4.992 4.42l.53-2.24.15.04a.706.706 0 0 1 .385.22 1.411 1.411 0 0 1 .206.5l.506 1.9 1.914.46-.442-1.79a2.208 2.208 0 0 0-.156-.4 1.2 1.2 0 0 0-.595-.66 2.275 2.275 0 0 0 .647-.08 1.53 1.53 0 0 0 .663-.41 1.744 1.744 0 0 0 .34-1.7 1.35 1.35 0 0 0-.551-.66 3.933 3.933 0 0 0-1.168-.42l-2.824-.68-1.307 5.51zm1.043-4.4l.744.18a1.032 1.032 0 0 1 .6.29.528.528 0 0 1 .071.45.552.552 0 0 1-.182.3.453.453 0 0 1-.316.1 2.275 2.275 0 0 1-.466-.03l-.715-.17zm7.5 5.19l1.823-.06-2.3-5.59-1.9.06-1.936 5.73 1.777-.06.245-.94 1.976-.07zm-1.949-2.1l.55-2.05.687 2.01zm4.857 1.8l1.56-.5-.939-2.96 2.951 2.32 1.564-.5-1.71-5.4-1.565.5.947 2.99-2.969-2.34-1.55.49zm4.006-5.79l1.493-.97 2.3 3.58 1.464-.94-2.3-3.59 1.493-.96-.755-1.18-4.449 2.88zm7.735-.18l3.266-3.47-.928-.88-2.066 2.19-.807-.77 1.863-1.98-.836-.79-1.862 1.98-.651-.62 2.008-2.13-.875-.83-3.207 3.4zm4.12-4.67l2.37-4.14-1.106-.64-1.5 2.62-.963-.56 1.352-2.36-1-.57-1.352 2.36-.777-.45 1.458-2.55-1.043-.6-2.329 4.07z" transform="translate(-431 -1522)"/></svg>