<svg xmlns="http://www.w3.org/2000/svg" width="18" height="18" viewBox="0 0 18 18"><defs><style>.cls-1 { fill: #9fa9ba; fill-rule: evenodd; }</style></defs><path class="cls-1" d="M1478 80a9 9 0 1 0 9 9 9 9 0 0 0-9-9zm0 13.688a.937.937 0 1 1 .94-.937.938.938 0 0 1-.94.936zm1.47-4.446a1.97 1.97 0 0 0-.7 1.633h-1.5a2.744 2.744 0 0 1 1.07-2.6 1.6 1.6 0 0 0 .72-1.366.99.99 0 0 0-1.02-.919 1.269 1.269 0 0 0-1.16 1.51h-1.5a2.754 2.754 0 0 1 4.6-2.246 2.33 2.33 0 0 1 .64 1.724 3.338 3.338 0 0 1-1.15 2.264z" transform="translate(-1469 -80)"/></svg>