<svg xmlns="http://www.w3.org/2000/svg" width="16.504" height="12.87" viewBox="0 0 16.504 12.87"><defs><style>.cls-1 { fill: #e9e9e9; fill-rule: evenodd; }</style></defs><path id="_" class="cls-1" d="M991.212 1864.72a5.754 5.754 0 0 1 1.805-1.46 1.489 1.489 0 0 0 .838-1.4 1.457 1.457 0 0 0-.387-1.05 1.418 1.418 0 0 0-1.074-.41 3.9 3.9 0 0 0-2.353 1.09 8.634 8.634 0 0 0-2.234 2.94 8.918 8.918 0 0 0-.913 3.98 5.467 5.467 0 0 0 1.042 3.58 3.25 3.25 0 0 0 2.61 1.26 3.472 3.472 0 0 0 2.417-.89 2.943 2.943 0 0 0 .978-2.27 3.086 3.086 0 0 0-.978-2.33 3.128 3.128 0 0 0-2.2-.94h-.3a3.694 3.694 0 0 1 .749-2.1zm9.478.01a5.488 5.488 0 0 1 1.78-1.47 1.46 1.46 0 0 0 .84-1.4 1.479 1.479 0 0 0-.38-1.06 1.4 1.4 0 0 0-1.08-.4 3.314 3.314 0 0 0-1.75.63 7.742 7.742 0 0 0-1.83 1.72 9.49 9.49 0 0 0-1.386 2.55 8.924 8.924 0 0 0-.537 3.11 5.6 5.6 0 0 0 1.031 3.59 3.215 3.215 0 0 0 2.621 1.29 3.428 3.428 0 0 0 2.421-.92 3.024 3.024 0 0 0 .97-2.28 3.087 3.087 0 0 0-.97-2.33 3.12 3.12 0 0 0-2.18-.94h-.284a4.139 4.139 0 0 1 .734-2.09z" transform="translate(-986.906 -1860.41)"/></svg>