<svg xmlns="http://www.w3.org/2000/svg" width="9.969" height="13" viewBox="0 0 9.969 13"><defs><style>.cls-1 { fill: #8bdd0b; fill-rule: evenodd; }</style></defs><path class="cls-1" d="M653.971 1055.23v-.21c-.014-.39-.041-.78-.069-1.17-.028-.46-.056-.9-.056-1.34l-.014-1.13s-.014-.74-.014-1.11v-.17a1.22 1.22 0 0 0-1.076-1.52 4.222 4.222 0 0 0-.5-.02c.015-1.18.042-2.77-.977-3.78a2.955 2.955 0 0 0-2.235-.78c-2.919.08-3.24 2.75-3.282 4.61a.8.8 0 0 0-.223-.02 2.311 2.311 0 0 0-.936.08.943.943 0 0 0-.531 1.11l.014.15c0 .59-.028 1.17-.042 1.76-.014.56-.028 1.13-.028 1.69 0 .34.014.66.028.99l.014.8v.13a2.771 2.771 0 0 0 .14 1.06 1.32 1.32 0 0 0 1.3.63h.237c.265-.01.517 0 .782 0a4.964 4.964 0 0 0 .545.02h.321c.531-.02 1.048-.03 1.564-.02.88.03 1.788 0 2.668-.04h.1a1.445 1.445 0 0 1 .293.02 1.472 1.472 0 0 0 1.977-1.74zm-3.785-6.66c-.5 0-.977-.01-1.508 0l-1.313.02c.042-2.01.377-2.93 1.7-2.97a1.377 1.377 0 0 1 1.062.31c.53.52.516 1.73.5 2.6v.05z" transform="translate(-644 -1044)"/></svg>