<svg xmlns="http://www.w3.org/2000/svg" width="25" height="22" viewBox="0 0 25 22"><defs><style>.cls-1 { fill: #777; fill-rule: evenodd; }</style></defs><path id="groups-icon" class="cls-1" d="M212.738 103.312c-2.865-.044-5.729-.484-5.729-2.156v-.484c0-1.32 2.225-2.618 4.208-3.3.089-.022.64-.308.287-1.43h.022a6.438 6.438 0 0 1-1.653-4.224c0-2.442 1.565-3.718 3.35-3.718a3.228 3.228 0 0 1 3.283 3.124 5.8 5.8 0 0 0-2.688 5.17 9.056 9.056 0 0 0 1.939 5.456 14.178 14.178 0 0 0-3.019 1.562zm15.073-5.94c-.089-.022-.662-.308-.309-1.43a6.535 6.535 0 0 0 1.631-4.224c0-2.442-1.543-3.718-3.35-3.718a3.255 3.255 0 0 0-3.283 3.124 5.8 5.8 0 0 1 2.688 5.17 9.119 9.119 0 0 1-1.939 5.478 14.784 14.784 0 0 1 3.063 1.54c2.843-.044 5.685-.506 5.685-2.156v-.484c.003-1.32-2.225-2.618-4.186-3.3zm-5.818 5.588c-.11-.022-.815-.352-.375-1.694a7.53 7.53 0 0 0 2.028-4.972 4.055 4.055 0 0 0-4.143-4.422c-2.226 0-4.121 1.518-4.121 4.422a7.587 7.587 0 0 0 2.028 4.994 1.171 1.171 0 0 1-.529 1.672c-2.314.858-5.047 2.4-5.047 3.916v.572c0 2.09 3.989 2.552 7.691 2.552s7.646-.462 7.646-2.552v-.572c0-1.562-2.732-3.102-5.178-3.916z" transform="translate(-207 -88)"/></svg>