<svg xmlns="http://www.w3.org/2000/svg" width="22" height="22" viewBox="0 0 22 22"><defs><style>.cls-1 { fill: #777; fill-rule: evenodd; }</style></defs><path id="need-help-icon" class="cls-1" d="M363 88a11 11 0 1 0 11 11 11 11 0 0 0-11-11zm0 16.729a1.146 1.146 0 1 1 1.146-1.146 1.147 1.147 0 0 1-1.146 1.146zm1.8-5.434a2.425 2.425 0 0 0-.858 2h-1.842a3.374 3.374 0 0 1 1.311-3.179 1.961 1.961 0 0 0 .882-1.669 1.212 1.212 0 0 0-1.251-1.124c-.65 0-1.41.483-1.41 1.845h-1.842c0-2.2 1.291-3.621 3.29-3.621a3.233 3.233 0 0 1 2.338.876 2.871 2.871 0 0 1 .783 2.106 4.1 4.1 0 0 1-1.401 2.771z" transform="translate(-352 -88)"/></svg>