<svg xmlns="http://www.w3.org/2000/svg" width="78" height="78" viewBox="0 0 78 78"><defs><style>.cls-1 { fill: #060000; fill-rule: evenodd; }</style></defs><path id="icon_copy_3" class="cls-1" d="M929.006 2562a39 39 0 1 1-39 39 39 39 0 0 1 39-39zm14.364 30.15q.591-3.75-1.617-5.86c-1.468-1.42-3.874-2.29-7.228-2.63l.423-2.69h-5.073l-.423 2.69c-3.782.34-6.719 1.22-8.8 2.66a8.5 8.5 0 0 0-3.737 5.93 7.749 7.749 0 0 0 .594 4.68 8.025 8.025 0 0 0 2.628 3.21 65.577 65.577 0 0 0 6.3 3.56c1.868.96 2.914 1.85 3.131 2.66a11.076 11.076 0 0 1-.12 4.07 2.783 2.783 0 0 1-.814 1.7 2.491 2.491 0 0 1-1.754.58 1.336 1.336 0 0 1-1.522-.83 14.75 14.75 0 0 1 .325-4.23l.326-2.07h-11.029l-.257 1.65q-.891 5.64 2.056 7.91a13.364 13.364 0 0 0 7.314 2.6l-.514 3.29h5.073l.5-3.18c3.845-.41 6.847-1.46 9.01-3.18a10.788 10.788 0 0 0 3.954-7.08 9.055 9.055 0 0 0-.309-4.71 6.716 6.716 0 0 0-2.119-2.93 38.957 38.957 0 0 0-5.265-2.98 34.854 34.854 0 0 1-5.463-3.09 2.908 2.908 0 0 1-.6-2.78 3.153 3.153 0 0 1 .783-1.79 2.207 2.207 0 0 1 1.611-.59 1.452 1.452 0 0 1 1.526.69 6.936 6.936 0 0 1-.075 2.92l-.222 1.4h11.027c.188-.71.308-1.24.36-1.58z" transform="translate(-890 -2562)"/></svg>