<svg xmlns="http://www.w3.org/2000/svg" width="44" height="39" viewBox="0 0 44 39"><defs><style>.cls-1 { fill: #acf31a; } .cls-1, .cls-2 { fill-rule: evenodd; } .cls-2 { fill: #060000; }</style></defs><path class="cls-1" d="M1024 2461c-11.62 0-22 7.49-22 17.74a15.315 15.315 0 0 0 3.75 9.97c.1 3.25-1.87 7.9-3.65 11.29 4.77-.83 11.55-2.67 14.63-4.5 16.93 3.99 29.27-6.03 29.27-16.76 0-10.3-10.45-17.74-22-17.74z" transform="translate(-1002 -2461)"/><path id="Shape_1850_copy" class="cls-2" d="M1024 2487.59a1.816 1.816 0 1 1 1.88-1.82 1.847 1.847 0 0 1-1.88 1.82zm2.94-8.61c-1.35 1.42-1.42 2.2-1.4 3.16h-3.01c-.01-2.14.03-3.09 2.15-5.04.86-.79 1.54-1.41 1.44-2.64a1.958 1.958 0 0 0-2.04-1.78c-1.07 0-2.32.76-2.32 2.92h-3.01c0-3.48 2.11-5.74 5.39-5.74a5.429 5.429 0 0 1 3.83 1.39 4.446 4.446 0 0 1 1.28 3.34c-.02 2.01-1.29 3.33-2.31 4.39z" transform="translate(-1002 -2461)"/></svg>