<svg xmlns="http://www.w3.org/2000/svg" width="16.5" height="12.87" viewBox="0 0 16.5 12.87"><defs><style>.cls-1 { fill: #e9e9e9; fill-rule: evenodd; }</style></defs><path id="_" class="cls-1" d="M1261.3 1969.97a6.362 6.362 0 0 1-1.78 1.46 1.494 1.494 0 0 0-.88 1.42 1.389 1.389 0 0 0 .42 1.02 1.446 1.446 0 0 0 1.08.42 3.811 3.811 0 0 0 2.35-1.09 8.631 8.631 0 0 0 2.19-2.96 8.975 8.975 0 0 0 .9-3.96 5.658 5.658 0 0 0-1.02-3.59 3.226 3.226 0 0 0-2.64-1.29 3.372 3.372 0 0 0-2.39.92 3.061 3.061 0 0 0-.98 2.3 3.162 3.162 0 0 0 .98 2.31 2.99 2.99 0 0 0 2.18.98h.32a3.567 3.567 0 0 1-.73 2.06zm9.5-.01a6.24 6.24 0 0 1-1.83 1.47 1.523 1.523 0 0 0-.88 1.42 1.394 1.394 0 0 0 .41 1.03 1.433 1.433 0 0 0 1.09.41 3.891 3.891 0 0 0 2.38-1.08 8.861 8.861 0 0 0 2.19-2.93 9.089 9.089 0 0 0 .89-4 5.683 5.683 0 0 0-1.01-3.61 3.2 3.2 0 0 0-2.64-1.27 3.351 3.351 0 0 0-2.41.94 3.007 3.007 0 0 0-.99 2.28 3.369 3.369 0 0 0 3.23 3.29h.25a3.578 3.578 0 0 1-.68 2.05z" transform="translate(-1258.56 -1961.41)"/></svg>