<svg xmlns="http://www.w3.org/2000/svg" width="16" height="16" viewBox="0 0 16 16"><defs><style>.cls-1 { fill: #ffe242; fill-rule: evenodd; }</style></defs><path class="cls-1" d="M872 535.741a6.259 6.259 0 1 1-6.259 6.259 6.266 6.266 0 0 1 6.259-6.259m0-1.741a8 8 0 1 0 8 8 8 8 0 0 0-8-8zm0 6.823a1.18 1.18 0 1 0 1.18 1.18 1.18 1.18 0 0 0-1.18-1.183zm-.018 1.712a.619.619 0 0 1-.638-.641l.213-4.169a.442.442 0 0 1 .883 0l.184 4.173a.621.621 0 0 1-.642.634zm-.355-.951a.739.739 0 0 1 1.063-.118l2.871 3.266a.6.6 0 0 1-.817.817l-3.241-2.9a.744.744 0 0 1 .124-1.068zm.373-6.436v.934m0 12.77v-.935m6.852-5.917h-.935m-12.769 0h.935" transform="translate(-864 -534)"/></svg>