<svg xmlns="http://www.w3.org/2000/svg" width="57.625" height="57" viewBox="0 0 57.625 57"><defs><style>.cls-1 { fill: #d4dadf; fill-rule: evenodd; }</style></defs><path id="nbc" class="cls-1" d="M426.054 885.687a6.089 6.089 0 1 1 3.317-11.188l16.53 11.188h-19.847zm1.677-13.7a6.078 6.078 0 1 1 8.844-7.567l8.448 19.345-17.292-11.778zm43.819 13.707a6.095 6.095 0 1 0-3.324-11.2l-16.569 11.2h19.893zm-1.677-13.707a6.087 6.087 0 1 0-8.863-7.575l-8.467 19.364 17.33-11.789zm-18.66-11.456a2.17 2.17 0 0 0-1.363 2.645l2.565 18.02 8.554-19.643a6.088 6.088 0 1 0-11.609-1.79h1.612c.914.045 1.4.289.241.77zm-14.583 1.027a6.077 6.077 0 1 1 11.547-1.511l-3.01 21.137-8.537-19.626zm37.143 47.642a10.742 10.742 0 0 1-3.8.809 10.673 10.673 0 1 1 0-21.319 9.728 9.728 0 0 1 3.8.789v4.076a6.928 6.928 0 1 0 0 11.6v4.045zm-37.232-19.814h4.114v20.368l-12.664-11.619v11.173h-4.114v-20.361l12.664 11.618v-11.178zm17.9 9.276c1.257-.934 2.35-1.827 2.34-4.18-.014-3.1-2.508-5.115-5.6-5.115h-8.163v19.961h9.156a5.6 5.6 0 0 0 5.71-5.719 5.371 5.371 0 0 0-3.442-4.947zm-7.288-6.277h3.058a2.6 2.6 0 0 1 0 5.191h-3.058v-5.191zm3.723 13.946h-3.723v-5.773l3.723-.017a2.9 2.9 0 0 1 0 5.79z" transform="translate(-420 -853)"/></svg>