<svg xmlns="http://www.w3.org/2000/svg" width="78.82" height="25.968" viewBox="0 0 78.82 25.968"><defs><style>.cls-1 { fill: #d4dadf; fill-rule: evenodd; }</style></defs><path id="time" class="cls-1" d="M1077.52 885.244l-2.3-.01h-3.55l-2.16.019-.03 3.09-.35.01.02-3.473-.01-1.427c1.21.059 5.59.1 10.14.1 5.3 0 8.71-.054 10.05-.094l-.01 1.581.03 3.513h-.37c.01-.287-.05-1.452-.05-1.566 0-.043-.08-1.608-.09-1.725l-1.52-.022h-4.56l-1.75.006.01 21.671c0 .029.03 1.42.03 1.709.18.025 1.87.143 2.18.143h.12v.591l-.3.009c-.96-.011-2.51-.126-3.61-.126s-2.62.107-3.75.124l-.35-.009v-.629l.19-.006c.48-.018 1.65-.1 1.96-.123l.05-.007-.02-23.341zm20.48 24.132c-.89 0-2.4-.148-3.54-.148l-3.73.148-.35-.021v-.615c.22 0 1.18-.093 1.45-.113a4.4 4.4 0 0 0 .74-.081s0-.742.01-1.891c.01-3.976.03-15.215-.01-20.3v-2.093l-.7-.075c-.26-.014-1.31-.115-1.49-.126l-.01-.615c1.05 0 2.6.107 3.87.107l4.08-.107v.642l-.69.045c-.36.034-1.37.149-1.62.167v1.978c0 4.554-.01 16.467-.01 20.478v1.3a4.272 4.272 0 0 0 .01.5 6.675 6.675 0 0 0 .78.092c.28.032 1.43.083 1.47.091h.08v.615l-.34.021zm7.99-17.295s-.58 3.171-1.4 7.645c-.44 2.417-1.35 8.461-1.41 8.86a16.449 16.449 0 0 0 1.83.153h.26v.612l-.4.017c-1-.021-1.71-.1-2.78-.1-.28 0-1.77.078-2.29.1-.22.01-.53-.015-.59-.012v-.606l.22-.023c.47-.022 1.2-.1 1.82-.176.05-.3.59-3.277.76-4.333.65-3.493 2.59-15.164 2.83-16.738.22-1.7.46-3.814.48-4.046.52.008 1.4-.012 1.4-.012s1.72 5.331 2 6.112l5.51 14.272s2.46-5.812 4.65-12.05c.44-1.263 1.02-2.91 1.45-4.243l1.32-4.092h1.34s.34 2.383.46 3.444c.34 3.088 2.59 15.636 3.38 19.763.2 1.032.35 1.926.35 1.926l1.68.152.49.027v.621l-.38.013c-1.21-.007-3.09-.116-4.25-.116-1.03 0-2.02.089-3.06.111h-.53v-.615l.22-.006c.5-.024 1.84-.156 1.97-.162 0-.226-.07-1.008-.18-1.806-.08-.565-.2-1.527-.34-2.476-.29-1.846-1.65-9.493-2.06-11.617l-.11-.543s-4.21 10.833-5.06 12.967l-.17.406c-.81 2.056-1.49 3.888-1.49 3.888l-1.2-.007-6.57-16.913-.15-.394zm41.71-3.567h-.35v-.182c-.04-.452-.12-1.729-.21-2.8a1.235 1.235 0 0 0-.03-.171c-.21-.006-1.05-.034-1.07-.048l-.7-.029s-2.23-.017-4.51-.019c-1.57 0-3.1.009-4.04.009-.23 0-1.06.031-1.06.031l-.01 10.2 6.54.022 1.77-.053c.1 0 1.27-.066 1.32-.082a.834.834 0 0 1 .04-.185c.09-.617.22-1.2.24-1.661a2.08 2.08 0 0 0 .04-.328l.37-.008.02.332c-.01.614-.05 1.89-.05 2.727 0 1.2.03 2.292.04 2.837v.4h-.41a1.055 1.055 0 0 1-.02-.18c-.08-.7-.14-1.186-.24-1.893l-.04-.245c-.2-.015-.76-.034-1.05-.043-.13 0-1.72-.015-3.51-.018l-2.62.032c-.65 0-1.74.042-2.44.068l.01 9.247.02 1.191 3.97.069h5.65c.03 0 1.3-.052 1.69-.044l.26-.013c.04-.3.08-.9.13-1.481 0-.069.14-1.6.14-2.015h.35c0 .389-.07 5.234-.07 5.234-.64 0-2.6 0-5.01-.037l-4.71-.044c-1.3-.019-2.59-.066-3.77-.065-1.67 0-3.31.112-3.95.113l-.46-.01v-.609h.12a16.827 16.827 0 0 0 2.15-.183l.04-1.662v-20.018c0-.925-.02-2.467-.02-2.6l-.53-.077c-.37-.051-1.08-.113-1.46-.14a1.645 1.645 0 0 1-.29-.023v-.607l.58-.006c.68 0 1.92.1 3.43.1.96 0 2.49-.046 3.59-.06 1.57 0 2.76-.015 4.28-.024l5.43-.039h.37v.164c0 .193-.01.53 0 .944.01 1.29.04 3.318.04 3.98z" transform="translate(-1069.12 -883.438)"/></svg>