<svg xmlns="http://www.w3.org/2000/svg" width="360.844" height="232.19" viewBox="0 0 360.844 232.19"><defs><style>.cls-1 { fill: #fff; fill-rule: evenodd; opacity: 0.25; }</style></defs><path id="left-quote-bubble" class="cls-1" d="M888.17 2078.69a21.525 21.525 0 0 1-20.8 20.31q-36.219.765-72.552 1-18.161.135-36.33.16t-36.337-.02c-48.446-.12-96.853-.63-145.011-1.13a20.306 20.306 0 0 1-19.457-15.88 77.55 77.55 0 0 1-11.41 2.4 110.054 110.054 0 0 1-15.618.63c-.486-.01-.988-.06-1.5-.11 1.582-.73 3.151-1.46 4.591-2.3a86.432 86.432 0 0 0 12.066-8.64 72.172 72.172 0 0 0 11.16-11.68c-.827-57.99-3.3-115.59-.711-174.06a21.576 21.576 0 0 1 21.131-20.31c48.416-.24 96.887-.74 145.275-.96q18.145-.09 36.274-.11t36.232.05q36.206.135 72.28.74a21.543 21.543 0 0 1 20.743 20.48q.912 23.73 1.357 47.49.446 23.745.434 47.47-.02 47.43-1.817 94.47z" transform="translate(-529.156 -1868)"/></svg>