<svg xmlns="http://www.w3.org/2000/svg" width="360.84" height="232.19" viewBox="0 0 360.84 232.19"><defs><style>.cls-1 { fill: #fff; fill-rule: evenodd; opacity: 0.4; }</style></defs><path id="right-quote-bubble" class="cls-1" d="M1329.35 2054.16a110.07 110.07 0 0 1-15.62-.63 77.632 77.632 0 0 1-11.41-2.4 20.308 20.308 0 0 1-19.46 15.88c-48.15.5-96.56 1.01-145.01 1.13q-18.165.06-36.33.02t-36.33-.16q-36.33-.255-72.557-1a21.525 21.525 0 0 1-20.8-20.31q-1.784-46.965-1.818-94.47-.01-23.715.434-47.47t1.357-47.49a21.543 21.543 0 0 1 20.743-20.48q36.066-.645 72.284-.74 18.09-.075 36.23-.05 18.12.03 36.27.11c48.39.22 96.86.72 145.28.96a21.576 21.576 0 0 1 21.13 20.31c2.58 58.47.11 116.07-.71 174.06a72.215 72.215 0 0 0 11.16 11.68 86.258 86.258 0 0 0 12.06 8.64c1.44.84 3.01 1.57 4.59 2.3-.503.05-1.013.1-1.493.11z" transform="translate(-970 -1836)"/></svg>