<svg xmlns="http://www.w3.org/2000/svg" width="46" height="39" viewBox="0 0 46 39"><defs><style>.cls-1 { fill: #212121; fill-rule: evenodd; } .cls-2 { fill: #acf31a; }</style></defs><path class="cls-1" d="M502 2463.77a2.791 2.791 0 1 0 2.875 2.79 2.834 2.834 0 0 0-2.875-2.79zm4.065-1.15a5.938 5.938 0 0 0-8.131 0l-14.128 13.69h4.065l12.1-11.72a2.93 2.93 0 0 1 4.066 0l12.1 11.72h4.066z" transform="translate(-479 -2461)"/><rect id="Shape_1852_copy_2" class="cls-2" y="15.31" width="46" height="23.69" rx="2.875" ry="2.875"/><path id="_24_7-2" class="cls-1" d="M488.723 2490.88a.883.883 0 0 0 1 .87h4.558a.788.788 0 0 0 .8-.79.8.8 0 0 0-.8-.8h-2.927l1.368-1.06c1.487-1.15 2.206-1.84 2.206-3.25v-.02a2.588 2.588 0 0 0-2.89-2.59 3.3 3.3 0 0 0-2.735 1.23.958.958 0 0 0-.215.58.833.833 0 0 0 .839.84.849.849 0 0 0 .624-.26 1.764 1.764 0 0 1 1.367-.74 1.035 1.035 0 0 1 1.127 1.1c0 .69-.407 1.16-1.451 2.01l-2.387 1.95a1.191 1.191 0 0 0-.484.93zm11.433.07a.87.87 0 0 0 .876.88.88.88 0 0 0 .887-.88v-1.01h.444a.739.739 0 0 0 .756-.74.756.756 0 0 0-.756-.76h-.444v-4.34a.872.872 0 0 0-.887-.87 1.347 1.347 0 0 0-1.152.62l-3.646 4.23a1.523 1.523 0 0 0-.431 1.01.865.865 0 0 0 .9.85h3.454v1.01zm-2.231-2.51l2.231-2.61v2.61h-2.231zm5.4 4.24a.709.709 0 0 0 .708.68.665.665 0 0 0 .635-.42l4.69-9.8a.881.881 0 0 0 .084-.35.717.717 0 0 0-.708-.68.68.68 0 0 0-.636.42l-4.689 9.8a.928.928 0 0 0-.082.35zm7.559-1.68a.868.868 0 0 0 .948.83.978.978 0 0 0 .887-.63l3.37-6.11a2.057 2.057 0 0 0 .264-.9.767.767 0 0 0-.839-.83h-4.558a.8.8 0 0 0-.8.8.788.788 0 0 0 .8.79h3.214l-3.118 5.47a1.373 1.373 0 0 0-.166.58z" transform="translate(-479 -2461)"/></svg>