<svg xmlns="http://www.w3.org/2000/svg" width="16.031" height="22" viewBox="0 0 16.031 22"><defs><style>.cls-1 { fill: #777; fill-rule: evenodd; }</style></defs><path id="money-icon" class="cls-1" d="M302.93 94.135a3.437 3.437 0 0 0-.892-3.222 6.628 6.628 0 0 0-3.989-1.441l.234-1.482h-2.8l-.234 1.482a10.146 10.146 0 0 0-4.858 1.457 4.674 4.674 0 0 0-2.062 3.261 4.242 4.242 0 0 0 .328 2.572 4.391 4.391 0 0 0 1.45 1.764 37.014 37.014 0 0 0 3.478 1.959 3.153 3.153 0 0 1 1.727 1.463 6.039 6.039 0 0 1-.066 2.236 1.523 1.523 0 0 1-.449.934 1.391 1.391 0 0 1-.968.317.736.736 0 0 1-.84-.453 8.091 8.091 0 0 1 .179-2.325l.18-1.14h-6.085l-.142.909c-.328 2.067.054 3.516 1.135 4.348a7.417 7.417 0 0 0 4.036 1.429l-.284 1.8h2.8l.277-1.747a9.486 9.486 0 0 0 4.973-1.746 5.933 5.933 0 0 0 2.182-3.894 4.955 4.955 0 0 0-.171-2.589 3.7 3.7 0 0 0-1.169-1.609 21.886 21.886 0 0 0-2.906-1.636 19.093 19.093 0 0 1-3.014-1.7 1.589 1.589 0 0 1-.33-1.526 1.717 1.717 0 0 1 .432-.984 1.211 1.211 0 0 1 .889-.326.8.8 0 0 1 .842.379 3.806 3.806 0 0 1-.041 1.606l-.123.77h6.082a8.756 8.756 0 0 0 .2-.872z" transform="translate(-287 -88)"/></svg>