<svg id="logo" xmlns="http://www.w3.org/2000/svg" width="188" height="44" viewBox="0 0 188 44">
  <defs>
    <style>
      .cls-1 {
        fill: #76cc1e;
      }

      .cls-1, .cls-2 {
        fill-rule: evenodd;
      }

      .cls-2 {
        fill: #060000;
      }
    </style>
  </defs>
  <path class="cls-1" d="M454.88,42.881a4.427,4.427,0,0,1-2.272,2.986,17.751,17.751,0,0,1-7.624,1.6c-5.863,0-12.057-3.545-12.057-11.346a15.93,15.93,0,0,1,16.016-15.673c4.288,0,7.4,1.455,8.942,2.911a2.935,2.935,0,0,1,1.136,2.314,2.81,2.81,0,0,1-2.785,2.836,2.838,2.838,0,0,1-1.76-.6,8.569,8.569,0,0,0-5.973-2.2c-5.5,0-9.712,4.777-9.712,10.226,0,4.067,2.932,6.269,6.56,6.269a10.608,10.608,0,0,0,4.581-1.007l1.209-4.254h-3.15a2.447,2.447,0,0,1-2.456-2.463,2.479,2.479,0,0,1,2.456-2.5h6.632c1.869,0,2.895,1.419,2.272,3.7Zm24.09,12.242C478.493,56.952,477.32,58,475.854,58c-1.869,0-2.858-1.38-2.235-3.732l6.474-24.6c0.475-1.828,1.649-2.873,3.225-2.873a2.226,2.226,0,0,1,2.455,2.388,7.7,7.7,0,0,1,5.534-2.537c4.288,0,7.549,3.172,7.549,8.584,0,7.09-5.313,12.166-10.848,12.166a6.726,6.726,0,0,1-6.156-3.284Zm4.091-16.759a4.048,4.048,0,0,0,4.215,4.255c3,0,5.827-2.986,5.827-7.017a3.846,3.846,0,0,0-4.1-4.179C485.921,31.423,483.061,34.558,483.061,38.365Zm32.14,6.009c-0.476,1.828-1.649,2.873-3.115,2.873-1.869,0-2.859-1.38-2.236-3.732l1.98-7.464a8.091,8.091,0,0,0,.256-1.791c0-1.605-.989-2.463-2.712-2.463-2.2,0-3.628,1.6-4.251,3.993l-2.272,8.584c-0.476,1.828-1.649,2.873-3.115,2.873-1.869,0-2.859-1.38-2.236-3.732l6.857-26.637c0.478-1.829,1.65-2.874,3.117-2.874,1.868,0,2.857,1.381,2.235,3.732l-2.864,11.373a8.041,8.041,0,0,1,5.351-2.462c3.518,0,5.791,2.2,5.791,5.821a16.627,16.627,0,0,1-.66,3.807Zm14.879-2.239a3.732,3.732,0,0,1,1.686-.523,2.071,2.071,0,0,1,2.089,2.164,2.317,2.317,0,0,1-1.063,1.9,11.366,11.366,0,0,1-6.377,1.791c-5.644,0-9.089-3.358-9.089-8.882,0-5.785,4.618-11.942,11.655-11.942,5.094,0,8.026,3.359,8.026,7.8a10.077,10.077,0,0,1-.22,2.052c-0.366,1.643-1.21,2.5-2.675,2.5H522.567c0.184,2.351,1.54,3.919,4.471,3.919A6.425,6.425,0,0,0,530.08,42.135Zm1.5-6.681a4.668,4.668,0,0,0,.183-1.306c0-1.642-.952-2.949-3.225-2.949a5.937,5.937,0,0,0-5.5,4.255h8.539Zm12.533-4.814c1.32-2.575,2.822-3.844,4.508-3.844a2.286,2.286,0,0,1,2.382,2.538c0,1.493-.733,2.425-2.419,2.91-3.481,1.008-5.681,3.247-6.854,7.689l-1.209,4.441c-0.476,1.828-1.649,2.873-3.114,2.873-1.87,0-2.86-1.38-2.237-3.732l3.665-13.846c0.477-1.828,1.649-2.873,3.116-2.873,1.832,0,2.749,1.381,2.272,3.4Z" transform="translate(-363 -14)"/>
  <path id="Color_Fill_1" data-name="Color Fill 1" class="cls-2" d="M367.428,44.971a2.666,2.666,0,0,1-2.493,2.239c-1.466,0-2.272-1.082-1.8-2.91l5.937-22.467a2.608,2.608,0,0,1,2.493-2.239c1.465,0,2.235,1.083,1.758,2.911Zm3.04-6.494c0-6.008,5.059-11.569,11.289-11.569,5.533,0,9.089,3.807,9.089,9.032,0,6.008-5.131,11.531-11.288,11.531C374.023,47.471,370.468,43.664,370.468,38.476Zm15.98-2.425c0-3.321-2.015-5.225-4.947-5.225-3.813,0-6.635,3.993-6.635,7.5,0,3.32,2.016,5.224,4.948,5.224C383.553,43.552,386.448,39.6,386.448,36.051ZM395.9,23.96a2.6,2.6,0,0,1,2.455-2.239c1.466,0,2.272,1.082,1.8,2.91l-0.733,2.687h2.968a1.942,1.942,0,0,1,0,3.881H398.4L395.9,40.716a6.689,6.689,0,0,0-.147,1.12c0,1.008.7,1.531,1.869,1.531a4.2,4.2,0,0,0,.77-0.075,1.52,1.52,0,0,1,1.722,1.679,1.83,1.83,0,0,1-1.209,1.866,7.028,7.028,0,0,1-2.968.522c-3.189,0-4.912-1.568-4.912-3.881a8.14,8.14,0,0,1,.33-2.276l2.6-10h-0.513a1.909,1.909,0,0,1-1.686-1.94,1.881,1.881,0,0,1,1.87-1.941h1.355Zm11.324,0a2.6,2.6,0,0,1,2.454-2.239c1.467,0,2.274,1.082,1.8,2.91l-0.733,2.687h2.968a1.942,1.942,0,0,1,0,3.881h-3.994l-2.492,9.516a6.689,6.689,0,0,0-.147,1.12c0,1.008.7,1.531,1.869,1.531a4.2,4.2,0,0,0,.77-0.075,1.52,1.52,0,0,1,1.722,1.679,1.829,1.829,0,0,1-1.209,1.866,7.032,7.032,0,0,1-2.969.522c-3.188,0-4.91-1.568-4.91-3.881a8.176,8.176,0,0,1,.329-2.276l2.6-10h-0.513a1.908,1.908,0,0,1-1.686-1.94,1.881,1.881,0,0,1,1.869-1.941h1.356Zm5.387,14.517c0-6.008,5.057-11.569,11.287-11.569,5.535,0,9.089,3.807,9.089,9.032,0,6.008-5.13,11.531-11.287,11.531C416.169,47.471,412.614,43.664,412.614,38.476Zm15.978-2.425c0-3.321-2.015-5.225-4.948-5.225-3.81,0-6.632,3.993-6.632,7.5,0,3.32,2.015,5.224,4.947,5.224C425.7,43.552,428.592,39.6,428.592,36.051Zm38.869-10.258A11.246,11.246,0,1,1,456.44,37.038,11.134,11.134,0,0,1,467.461,25.793Zm4.059,8.693a1.832,1.832,0,0,0-.457-1.69,3.346,3.346,0,0,0-2.042-.756l0.119-.777h-1.434l-0.119.777a5.106,5.106,0,0,0-2.488.765,2.461,2.461,0,0,0-1.056,1.711,2.336,2.336,0,0,0,.91,2.275,18.983,18.983,0,0,0,1.781,1.028,1.63,1.63,0,0,1,.885.768,3.242,3.242,0,0,1-.034,1.173,0.809,0.809,0,0,1-.23.49,0.7,0.7,0,0,1-.5.166,0.377,0.377,0,0,1-.431-0.237,4.388,4.388,0,0,1,.092-1.22l0.092-.6H463.5l-0.072.477a2.273,2.273,0,0,0,.581,2.281,3.745,3.745,0,0,0,2.066.75l-0.145.946h1.434L467.5,41.9a4.782,4.782,0,0,0,2.546-.916,3.13,3.13,0,0,0,1.117-2.043,2.654,2.654,0,0,0-.087-1.359,1.94,1.94,0,0,0-.6-0.844,11.13,11.13,0,0,0-1.488-.858,9.762,9.762,0,0,1-1.543-.891,0.848,0.848,0,0,1-.169-0.8,0.91,0.91,0,0,1,.221-0.516,0.612,0.612,0,0,1,.456-0.171,0.409,0.409,0,0,1,.431.2,2.069,2.069,0,0,1-.021.843l-0.063.4h3.114c0.053-.2.087-0.358,0.1-0.458h0Z" transform="translate(-363 -14)"/>
</svg>
