<svg xmlns="http://www.w3.org/2000/svg" width="360.844" height="232.19" viewBox="0 0 360.844 232.19"><defs><style>.cls-1 { fill: #fff; fill-rule: evenodd; opacity: 0.25; }</style></defs><path id="Rounded_Rectangle_952" class="cls-1" d="M577.393 1869.06c48.416-.24 96.887-.74 145.275-.96q18.145-.09 36.274-.11t36.232.05q36.206.135 72.28.74a21.543 21.543 0 0 1 20.743 20.48q.912 23.73 1.357 47.49.446 23.745.434 47.47-.021 47.43-1.818 94.47a21.525 21.525 0 0 1-20.8 20.31q-36.219.765-72.552 1-18.161.135-36.33.16t-36.337-.02c-48.446-.12-96.853-.63-145.011-1.13a20.379 20.379 0 0 1-19.985-20.28c-.527-63.17-3.7-125.75-.89-189.36a21.576 21.576 0 0 1 21.131-20.31zm-13.573 177.37a3.411 3.411 0 0 1 .81 4.21 69.13 69.13 0 0 1-18.817 24.47 86.432 86.432 0 0 1-12.066 8.64c-1.44.84-3.009 1.57-4.591 2.3.508.05 1.01.1 1.5.11a110.054 110.054 0 0 0 15.618-.63 82.106 82.106 0 0 0 12.393-2.67 158.456 158.456 0 0 0 15.77-5.02 43 43 0 0 0 6.419-2.9c.132-.08.369-.24.618-.43 0-2.37 2.244-3.6 4.429-3.38" transform="translate(-529.156 -1868)"/></svg>