<svg xmlns="http://www.w3.org/2000/svg" width="360.84" height="232.19" viewBox="0 0 360.84 232.19"><defs><style>.cls-1 { fill: #fff; fill-rule: evenodd; opacity: 0.4; }</style></defs><path id="Rounded_Rectangle_952_copy" class="cls-1" d="M1282.61 1837.06c-48.42-.24-96.89-.74-145.28-.96q-18.15-.09-36.27-.11t-36.23.05q-36.21.135-72.284.74a21.543 21.543 0 0 0-20.743 20.48q-.912 23.73-1.357 47.49-.446 23.745-.434 47.47.021 47.43 1.818 94.47a21.525 21.525 0 0 0 20.8 20.31q36.22.765 72.557 1 18.15.135 36.33.16t36.33-.02c48.45-.12 96.86-.63 145.01-1.13a20.378 20.378 0 0 0 19.99-20.28c.53-63.17 3.7-125.75.89-189.36a21.576 21.576 0 0 0-21.13-20.31zm13.57 177.37a3.4 3.4 0 0 0-.81 4.21 69.058 69.058 0 0 0 18.82 24.47 86.258 86.258 0 0 0 12.06 8.64c1.44.84 3.01 1.57 4.59 2.3-.5.05-1.01.1-1.49.11a110.07 110.07 0 0 1-15.62-.63 82.121 82.121 0 0 1-12.39-2.67 157.876 157.876 0 0 1-15.77-5.02 43.057 43.057 0 0 1-6.42-2.9c-.13-.08-.37-.24-.62-.43-.01-2.37-2.24-3.6-4.43-3.38" transform="translate(-970 -1836)"/></svg>