<svg xmlns="http://www.w3.org/2000/svg" width="11" height="14" viewBox="0 0 11 14"><defs><style>.cls-1 { fill: #212121; fill-rule: evenodd; }</style></defs><path class="cls-1" d="M950.284 3044.56c-.08-.02-.584-.27-.269-1.31a6.027 6.027 0 0 0 1.448-3.84c0-2.24-1.369-3.41-2.96-3.41s-2.953 1.17-2.953 3.41a6.011 6.011 0 0 0 1.448 3.85.931.931 0 0 1-.374 1.3c-1.666.66-3.62 1.85-3.62 3.03v.44c0 1.6 2.864 1.96 5.514 1.96s5.483-.36 5.483-1.96v-.44c-.001-1.22-1.969-2.4-3.717-3.03z" transform="translate(-943 -3036)"/></svg>