<svg xmlns="http://www.w3.org/2000/svg" width="93.374" height="30.687" viewBox="0 0 93.374 30.687"><defs><style>.cls-1 { fill: #d4dadf; fill-rule: evenodd; }</style></defs><path id="forbes" class="cls-1" d="M989.279 887.439a7.565 7.565 0 0 0-3.864.979c0-3.481 0-6.636.108-7.725l-7.191 1.307v.653l.751.109c.966.217 1.288.761 1.5 2.067.215 2.611.107 16.538 0 18.823a27.5 27.5 0 0 0 6.01.762c5.688 0 9.122-3.591 9.122-9.248 0-4.462-2.79-7.726-6.439-7.726zm-2.468 15.776a4.824 4.824 0 0 1-1.288-.107c-.108-1.524-.215-7.943-.108-13.6a4.7 4.7 0 0 1 1.61-.327c2.361 0 3.649 2.829 3.649 6.311 0 4.352-1.61 7.724-3.863 7.724zm-35.525-22.086h-18.886v.979l1.073.109c1.395.217 1.932 1.087 2.146 3.155a127.8 127.8 0 0 1 0 14.362c-.214 2.068-.751 3.047-2.146 3.155l-1.073.219v.87h12.127v-.87l-1.288-.219c-1.395-.108-1.932-1.087-2.146-3.155-.108-1.415-.215-3.7-.215-6.528l2.576.109c1.61 0 2.361 1.3 2.683 3.154h.963v-7.724h-.966c-.322 1.85-1.073 3.155-2.683 3.155l-2.576.109c0-3.7.107-7.181.215-9.248h3.756c2.9 0 4.4 1.849 5.473 5.114l1.074-.327-.108-6.419zm6.118 6.093c5.366 0 8.05 3.7 8.05 8.594 0 4.68-3.006 8.6-8.372 8.6s-8.049-3.7-8.049-8.6c0-4.678 3-8.594 8.371-8.594zm-.322 1.088c-2.361 0-3 3.264-3 7.506 0 4.135 1.073 7.508 3.221 7.508 2.467 0 3.111-3.264 3.111-7.508 0-4.133-1.073-7.506-3.327-7.506zm40.032 7.616c0-4.461 2.79-8.7 8.266-8.7 4.5 0 6.65 3.373 6.65 7.833h-9.98c-.11 4.026 1.82 6.964 5.69 6.964a5.473 5.473 0 0 0 3.65-1.2l.43.544a8.02 8.02 0 0 1-6.44 3.047c-4.83 0-8.266-3.481-8.266-8.487zm4.936-2.067l5.04-.109c0-2.176-.32-5.44-2.14-5.44s-2.79 3.046-2.9 5.549zm22.75-5.766a12.932 12.932 0 0 0-4.93-.871c-3.97 0-6.44 2.393-6.44 5.222s1.82 4.025 4.4 4.9c2.68.978 3.43 1.74 3.43 3.046a2.5 2.5 0 0 1-2.68 2.5c-2.04 0-3.54-1.2-4.72-4.461l-.76.218.11 4.788a16.76 16.76 0 0 0 5.69.979c4.19 0 6.87-2.177 6.87-5.549 0-2.285-1.18-3.591-3.97-4.679-3.01-1.2-4.08-1.958-4.08-3.373a2.247 2.247 0 0 1 2.25-2.394c1.94 0 3.22 1.2 4.19 4.135l.75-.218-.11-4.242zm-45.394-.436c-1.825-1.088-5.045-.544-6.762 3.373l.107-3.808-7.191 1.414v.653l.752.109c.966.109 1.395.652 1.5 2.067a92.491 92.491 0 0 1 0 9.467c-.107 1.3-.536 1.957-1.5 2.066l-.752.11v.87h9.982v-.87l-1.288-.11c-1.073-.109-1.395-.762-1.5-2.066a78.961 78.961 0 0 1-.107-8.814c.537-.762 2.9-1.415 5.044 0l1.718-4.461zm19.67 18.93h4.354v4.413h-4.354v-4.413zm-66.551 0h64.745v4.413h-64.745v-4.413zm77.525 2.812h-1.55a1.036 1.036 0 0 1-1.13.907 1.331 1.331 0 0 1 0-2.654.97.97 0 0 1 1.12.806h1.52c-.15-1.2-1.04-1.88-2.56-1.88-1.75 0-2.8.932-2.8 2.4a2.416 2.416 0 0 0 2.7 2.406c1.56 0 2.61-.826 2.7-1.982zm.51-.424c0 1.472 1.06 2.406 2.8 2.406s2.79-.934 2.79-2.406-1.03-2.4-2.79-2.4-2.8.932-2.8 2.4zm1.49.008a1.31 1.31 0 1 1 1.31 1.3 1.231 1.231 0 0 1-1.31-1.3zm6.3-1.573v-.674h-1.38v4.486h1.38v-2.214a1.178 1.178 0 0 1 1.28-1.274c.78 0 .96.416.96 1.315v2.173h1.33v-2.214a1.178 1.178 0 0 1 1.28-1.274c.78 0 .96.416.96 1.315v2.173h1.37v-2.472a2.539 2.539 0 0 0-.26-1.415 1.88 1.88 0 0 0-1.63-.715 2.239 2.239 0 0 0-1.83.931 1.751 1.751 0 0 0-1.74-.931 2.269 2.269 0 0 0-1.72.79z" transform="translate(-932.406 -880.688)"/></svg>