<svg xmlns="http://www.w3.org/2000/svg" width="17.97" height="18" viewBox="0 0 17.97 18"><defs><style>.cls-1 { fill: #777; fill-rule: evenodd; }</style></defs><path class="cls-1" d="M1287.82 33.352l-2.5 5.373a1.2 1.2 0 0 1-1.12.827h-5.64l.11.375a1.689 1.689 0 0 0 1.43 1.02h5.46a.7.7 0 0 1 0 1.395h-5.46a3.106 3.106 0 0 1-2.73-1.91l-.03-.067s-3.02-10.318-3.26-11.113c-.22-.75-.4-.856-.97-.856h-2.42a.7.7 0 0 1 0-1.395h2.42a2.2 2.2 0 0 1 2.31 1.857l.7 2.385a1.285 1.285 0 0 1 .36-.058h10.11c1.42-.001 1.61 1.237 1.23 2.167zm-4.49 4.767h.69l.58-1.251h-1.27v1.252zm0-2.159h1.7l.55-1.185h-2.25v1.185zm-3.69-3.344h-2.93a.99.99 0 0 0 .05.194l.33 1.058h2.55v-1.251zm0 2.159h-2.27l.37 1.185h1.9v-1.184zm0 2.092h-1.61l.38 1.229a.187.187 0 0 0 .08.022h1.15v-1.25zm2.79-4.251h-1.88v1.252h1.88v-1.251zm0 2.159h-1.88v1.185h1.88v-1.184zm0 2.092h-1.88v1.252h1.88v-1.251zm.9-4.251v1.252h2.67l.5-1.088a.621.621 0 0 0 .05-.164h-3.22zm-3.58 9.855a1.264 1.264 0 1 1-1.27 1.264 1.266 1.266 0 0 1 1.27-1.263zm4.17 0a1.264 1.264 0 1 1-1.26 1.264 1.268 1.268 0 0 1 1.26-1.263z" transform="translate(-1270 -27)"/></svg>