<svg xmlns="http://www.w3.org/2000/svg" width="241.66" height="31.188" viewBox="0 0 241.66 31.188"><defs><style>.cls-1 { fill: #d4dadf; fill-rule: evenodd; }</style></defs><path id="los-angeles-time" class="cls-1" d="M1411.98 905.935a41.625 41.625 0 0 0-3.64 3.213l-3.35-3.026v-.187a.906.906 0 0 0 .52-1.03v-8.2c-.77-.561-2.36-1.947-3.23-2.744l-1.09.967v9.981l.84.749a1 1 0 0 0 .66.344 1.363 1.363 0 0 0 .96-.438l.34.375a31.255 31.255 0 0 0-3.67 3.213l-3.35-3.057v-.156a.778.778 0 0 0 .52-.873v-8.329c-.8-.624-2.49-2.081-3.23-2.776l-1.08.936v10.012l.77.687a1.137 1.137 0 0 0 .75.406 1.122 1.122 0 0 0 .93-.438l.34.375c-1.08.844-2.59 2.19-3.66 3.213l-3.36-3v-.187a.828.828 0 0 0 .53-.967v-9.918l-.87-.687a1.083 1.083 0 0 0-.62-.28 1.439 1.439 0 0 0-.94.467l-.34-.436a37.225 37.225 0 0 0 3.7-3.182l2.95 2.777 3.17-2.777a45.585 45.585 0 0 0 4.26 3.307l3.76-3.307a61.351 61.351 0 0 0 5.28 3.993v.156a.9.9 0 0 0-.62.967v8.8l.69.655a1.285 1.285 0 0 0 .8.469 1.464 1.464 0 0 0 .97-.469zm-24.8-19.246l-1.25 1.123a3.982 3.982 0 0 1-2.58 1.309 2.745 2.745 0 0 1-1.77-.81 1.088 1.088 0 0 0-.71-.374 1.229 1.229 0 0 0-.9.436l-.34-.375 3.69-3.212 1.87 1.653a1.105 1.105 0 0 0 1.65-.125zm.74 19.246c-.94.772-2.75 2.34-3.66 3.244l-3.39-3.026v-.187a.807.807 0 0 0 .53-.873v-10.044l-.78-.625a.939.939 0 0 0-.65-.311 1.394 1.394 0 0 0-.97.436l-.34-.4a32.562 32.562 0 0 0 3.7-3.213l3.36 2.9v.156a.891.891 0 0 0-.62.9v10.012l.87.78a1.112 1.112 0 0 0 .74.313 1.221 1.221 0 0 0 .87-.438zm-65.01 0a42.309 42.309 0 0 0-3.67 3.244l-3.36-3.057v-.187a.923.923 0 0 0 .5-.967v-15.968l-.9-.686a1.094 1.094 0 0 0-.56-.281 1.36 1.36 0 0 0-.93.531l-.37-.406a38.455 38.455 0 0 0 3.73-3.276l3.35 2.9v.125a1.152 1.152 0 0 0-.62 1.092v15.908l.9.811a1.115 1.115 0 0 0 .75.282 1.377 1.377 0 0 0 .84-.438zm-36.39 0a34.314 34.314 0 0 0-3.67 3.213l-3.36-3v-.187a.987.987 0 0 0 .53-1.123v-8.11c-.83-.639-2.41-1.995-3.23-2.776l-1.09.936v10.012l1 .874a1.1 1.1 0 0 0 1.49-.187l.31.343a41.076 41.076 0 0 0-3.67 3.213l-3.36-3v-.187a.892.892 0 0 0 .53-.936v-9.981l-.9-.656a.964.964 0 0 0-.53-.28 1.471 1.471 0 0 0-.96.436l-.37-.4a38.639 38.639 0 0 0 3.7-3.182l2.95 2.777 3.17-2.777c1.11.964 3.89 3.1 5.28 4.024v.156a.757.757 0 0 0-.62.718v9.045l1.06.967a1.118 1.118 0 0 0 1.39-.343zm150.48-1.279a33.528 33.528 0 0 0-6.9 4.492 6.07 6.07 0 0 0-3.73-1.591c-1.4 0-1.84.49-1.84.967 0 .295.44.259.44.686a.486.486 0 0 1-.47.437.806.806 0 0 1-.65-.936c0-.919.54-2.142 2.24-4.024l2.89-3.213-3.7-1.9v-.187a.6.6 0 0 0 .4-.686v-2.776a.861.861 0 0 0-.4-.718v-.218a37.228 37.228 0 0 0 6.71-4.055 4.212 4.212 0 0 0 2.77 1.123c.99 0 1.12-.306 1.12-.655a4.08 4.08 0 0 0-.16-.4.326.326 0 0 1 .34-.374c.3 0 .53.22.53.779a3.581 3.581 0 0 1-3.7 3.306 3.986 3.986 0 0 1-3.32-1.341l-.16.093v4.087l2.27 1.092.96-.968 4.36 2.215v.187a.633.633 0 0 0-.38.593v3.15a.634.634 0 0 0 .38.656v.187zm-4.11 1.622v-4.648l-2.14-1-4.51 4.8.06.031a7 7 0 0 1 3.27-.593 4.915 4.915 0 0 1 3.26 1.435zm-8.64-9.421l-7.24 4.586v2.869a31.036 31.036 0 0 1 3.79 1.872l1.84-1.747a1 1 0 0 1 .84-1.06.411.411 0 0 1 .4.436.845.845 0 0 1-.28.593l-4.72 4.71a59.122 59.122 0 0 0-6.06-3.181v-.188a.82.82 0 0 0 .46-.81v-8.985a.781.781 0 0 0-.49-.81v-.187a80.491 80.491 0 0 0 7.11-3.993c1.28 1.903 3.15 4.444 4.35 5.895zm-3.51 1.4c-.99-1.245-2.71-3.53-3.67-4.991l-.06.031v7.362zm-41.52-12.657c0 2.462-1.64 3.648-3.66 3.961v15.628a7.445 7.445 0 0 0 2.51-3.088.664.664 0 0 0 .06-.281c0-.164-.15-.269-.15-.467a.378.378 0 0 1 .34-.469.442.442 0 0 1 .44.469c0 3.737-2.71 8.515-10.32 8.515a9.73 9.73 0 0 1-9.92-9.857c0-7.663 6.35-10.366 10.63-11.323a32.954 32.954 0 0 0-5.31-.592c-3.58 0-4.71 1.7-5.01 2.931l-.37-.187c.07-1.734 1.59-6.488 6.25-6.488 4.56 0 7.48 1.9 11.03 1.9 2.35 0 2.77-1.061 2.98-2.152l.41.156c.03.144.09 1.044.09 1.344zm-4.26 20v-15.979c-.18.013-.37.031-.56.031a13.215 13.215 0 0 1-2.33-.312 3.821 3.821 0 0 0-2.14 3.557c0 3.438 1.93 4.247 1.93 7.735 0 2.743-2.3 4.756-4.17 5.677a9.4 9.4 0 0 0 3.3.53 8.248 8.248 0 0 0 3.97-1.247zm-3.76-16.439l-.62-.125a9.882 9.882 0 0 0-8.14 9.608 7.81 7.81 0 0 0 4.66 7.424 3.985 3.985 0 0 0 1.71-3.432c0-3.242-2.08-5.006-2.08-7.954 0-2.218 1.44-4.182 4.47-5.529zm-23.86 15.5a33.528 33.528 0 0 0-6.9 4.492 6.07 6.07 0 0 0-3.73-1.591c-1.4 0-1.84.49-1.84.967 0 .295.44.259.44.686a.486.486 0 0 1-.47.437.813.813 0 0 1-.65-.936c0-.919.54-2.142 2.24-4.024l2.89-3.213-3.7-1.9v-.218a.569.569 0 0 0 .4-.655v-2.776a.681.681 0 0 0-.4-.718v-.218a37.228 37.228 0 0 0 6.71-4.055 4.212 4.212 0 0 0 2.77 1.123c.99 0 1.12-.306 1.12-.655a2.432 2.432 0 0 0-.16-.4.326.326 0 0 1 .34-.374c.3 0 .53.22.53.779a3.6 3.6 0 0 1-3.7 3.306 4 4 0 0 1-3.32-1.341l-.16.093v4.087l2.27 1.092.96-.968 4.36 2.215v.204a.633.633 0 0 0-.38.593v3.089a.572.572 0 0 0 .38.654v.219zm-4.11 1.622v-4.653l-2.14-1-4.51 4.8.07.031a6.928 6.928 0 0 1 3.26-.593 4.915 4.915 0 0 1 3.26 1.435zm-8.42-9.421l-7.24 4.586v2.869a31.036 31.036 0 0 1 3.79 1.872l1.84-1.747a1.028 1.028 0 0 1 .83-1.06.413.413 0 0 1 .41.436.826.826 0 0 1-.25.593l-4.75 4.71a58.268 58.268 0 0 0-6.07-3.181v-.188a.866.866 0 0 0 .47-.81v-8.985a.776.776 0 0 0-.5-.81v-.187a80.617 80.617 0 0 0 7.12-3.993c1.28 1.898 3.14 4.439 4.35 5.89zm-3.51 1.4c-1-1.245-2.72-3.53-3.67-4.991l-.06.031v7.362zm-17.03-1.4l-7.27 4.586v2.869a32.528 32.528 0 0 1 3.79 1.872l1.83-1.747a1.011 1.011 0 0 1 .87-1.06.388.388 0 0 1 .37.436.864.864 0 0 1-.24.593l-4.76 4.742a58.059 58.059 0 0 0-6.06-3.213v-.188a.883.883 0 0 0 .47-.81v-8.985a.776.776 0 0 0-.5-.81v-.187c2.1-1 4.94-2.62 7.15-3.993 1.28 1.898 3.14 4.439 4.35 5.89zm-3.54 1.4c-1-1.245-2.72-3.53-3.67-4.991l-.06.031v7.362zm-9.27 9.577c-.09 3.907-1.89 6.769-5.53 6.769-2.84 0-4.62-1.5-7.21-1.5a3.353 3.353 0 0 0-2.76 1.03l-.41-.343c.56-2.693 2.36-4.4 4.91-4.4 2.82 0 4.58 1.808 7.56 1.808a2.519 2.519 0 0 0 2.57-1.684l-.03-.062a3.971 3.971 0 0 1-1.33.218 3.2 3.2 0 0 1-3.2-2.807c-.73.512-2.21 1.645-2.93 2.277a54.1 54.1 0 0 0-5.96-3.276v-.187a.763.763 0 0 0 .49-.748v-8.922a.748.748 0 0 0-.55-.873v-.156a31.2 31.2 0 0 0 7.11-4.055 57.4 57.4 0 0 0 5.85 4.024v.156a.846.846 0 0 0-.44.873v9.795c0 1.221.3 1.871 1.18 1.871a1.9 1.9 0 0 0 .47-.031zm-5.56-1.591v-9.548c-.97-.646-3.24-2.292-4.41-3.212l-.16.125v10.543a37.941 37.941 0 0 1 4.11 2.433zm-25.23-.031c-1.05 1.8-2.13 3.15-3.7 3.15a2.644 2.644 0 0 1-2.58-2.058l-2.05-5.99h-7.96l-1.15 3.338a13.823 13.823 0 0 1 2.77.873 1.419 1.419 0 0 0 1.05-.936l.5.312-2.64 4.243a5.093 5.093 0 0 0-3.36-1.279 6.623 6.623 0 0 0-4.28 1.279l-.35-.125c.46-2.23 2.3-4.168 5.5-4.4l5.54-16.283-.19-.562a2.222 2.222 0 0 0-1.96-1.778 2.039 2.039 0 0 0-1.58.687l-.25-.218a3.283 3.283 0 0 1 3.2-2.683 3.513 3.513 0 0 1 3.08 1.622h.06a1.884 1.884 0 0 1 1.27-1.31l.1.156a2.16 2.16 0 0 0-.44 1.435 3.161 3.161 0 0 0 .19 1l6.52 19.371a.9.9 0 0 0 .84.686 1.571 1.571 0 0 0 1.28-.936zm-9.11-7.269l-3.17-9.357h-.06l-3.17 9.357h6.4zm-21.78 5.709a33.528 33.528 0 0 0-6.9 4.492 6.07 6.07 0 0 0-3.73-1.591c-1.4 0-1.84.49-1.84.967 0 .295.44.259.44.686a.486.486 0 0 1-.47.437.806.806 0 0 1-.65-.936c0-.919.54-2.142 2.24-4.024l2.89-3.213-3.7-1.9v-.218a.569.569 0 0 0 .4-.655v-2.776a.861.861 0 0 0-.4-.718v-.218a37.228 37.228 0 0 0 6.71-4.055 4.212 4.212 0 0 0 2.77 1.123c.99 0 1.12-.306 1.12-.655a2.432 2.432 0 0 0-.16-.4.326.326 0 0 1 .34-.374c.3 0 .53.22.53.779a3.454 3.454 0 0 1-3.7 3.306 3.986 3.986 0 0 1-3.32-1.341l-.16.093v4.087l2.27 1.092.96-.968 4.36 2.215v.25a.631.631 0 0 0-.38.593v3.057a.631.631 0 0 0 .38.654v.219zm-4.11 1.622v-4.649l-2.14-1-4.51 4.8.06.031a7 7 0 0 1 3.27-.593 4.915 4.915 0 0 1 3.26 1.435zm-9.64-1.185a37.358 37.358 0 0 0-7.06 4.055c-1.83-1.217-4.26-3.057-5.93-4.024v-.219a.834.834 0 0 0 .46-.936v-7.705c0-.715-.13-1.006-.53-1.091v-.187a28.686 28.686 0 0 0 7.06-4.055c1.52 1.216 4.29 3.026 5.87 4.024v.187a.736.736 0 0 0-.4.81v8.142a.831.831 0 0 0 .53.811v.188zm-4.26 1.466v-10.077a46.647 46.647 0 0 1-4.35-2.994l-.19.125v10.012a41.937 41.937 0 0 1 4.41 3.026zm-9.29-3.151l-2.99 5.74a7.6 7.6 0 0 0-5.06-1.685c-3.34 0-7.49.868-8.67 1.622l-.41-.436c1.31-1.15 2.68-4.132 2.68-7.674 0-3.776-2.15-5.557-2.15-9.3 0-3.842 1.71-5.973 4.88-7.58l.37.343a4.849 4.849 0 0 0-1.83 3.494l5.47-4.524a6.7 6.7 0 0 0 4.1 2.09c1.11 0 1.68-.228 1.68-.717a2.285 2.285 0 0 0-.22-.5.365.365 0 0 1 .41-.375.658.658 0 0 1 .49.749c0 2.069-2.11 3.806-4.28 3.806a6.64 6.64 0 0 1-1.87-.219v15.659c.34-.033.61-.062.84-.062a20.263 20.263 0 0 1 4.38.874c.72 0 .98-.516 1.55-1.623zm-7.99.561v-15.97a6.111 6.111 0 0 1-2.17-1.714l-3.05 2.464c0 4.6 2.39 6.675 2.39 10.387 0 2.6-1.82 5.3-3.23 6.675l.12.031a17.626 17.626 0 0 1 5.94-1.874z" transform="translate(-1195.34 -883.406)"/></svg>